<svg id="Layer_1" data-name="Layer 1" xmlns="http://www.w3.org/2000/svg" viewBox="0 0 4164.12 512"><defs><style>.cls-1{fill:#f4e260;}</style></defs><title>starrate</title><path class="cls-1" d="M1909.82,123l-36.46,73.91-81.56,11.9a17.87,17.87,0,0,0-9.88,30.48l59,57.5L1827,378a17.86,17.86,0,0,0,25.9,18.82l73-38.36,73,38.36c13,6.81,28.42-4.13,25.9-18.82l-14-81.22,59-57.5a17.88,17.88,0,0,0-9.88-30.48l-81.57-11.9L1941.86,123c-6.53-13.17-25.46-13.34-32,0Z"/><path class="cls-1" d="M1317,176.23l-21.87,44.34-48.94,7.14a10.73,10.73,0,0,0-5.93,18.29l35.41,34.5-8.38,48.73a10.72,10.72,0,0,0,15.55,11.29l43.78-23,43.77,23a10.73,10.73,0,0,0,15.55-11.29l-8.38-48.73L1413,246a10.73,10.73,0,0,0-5.93-18.29l-48.94-7.14-21.87-44.34a10.73,10.73,0,0,0-19.23,0Z"/><path class="cls-1" d="M2515.47,176.23l-21.88,44.34-48.93,7.14a10.72,10.72,0,0,0-5.93,18.29l35.4,34.5-8.37,48.73a10.71,10.71,0,0,0,15.54,11.29l43.78-23,43.78,23a10.72,10.72,0,0,0,15.54-11.29L2576,280.5l35.4-34.5a10.72,10.72,0,0,0-5.93-18.29l-48.93-7.14-21.88-44.34a10.72,10.72,0,0,0-19.22,0Z"/><path class="cls-1" d="M2733.61,208.14l-13.12,26.61L2691.12,239a6.44,6.44,0,0,0-3.55,11l21.24,20.7-5,29.24a6.42,6.42,0,0,0,9.32,6.77l26.27-13.81,26.27,13.81A6.43,6.43,0,0,0,2775,300l-5-29.24,21.24-20.7a6.44,6.44,0,0,0-3.56-11l-29.36-4.28-13.12-26.61a6.44,6.44,0,0,0-11.54,0Z"/><path class="cls-1" d="M1102.86,208.14l-13.12,26.61L1060.37,239a6.44,6.44,0,0,0-3.55,11l21.24,20.7L1073,300a6.42,6.42,0,0,0,9.32,6.77l26.27-13.81,26.26,13.81a6.44,6.44,0,0,0,9.33-6.77l-5-29.24,21.24-20.7a6.44,6.44,0,0,0-3.56-11l-29.36-4.28-13.12-26.61a6.44,6.44,0,0,0-11.54,0Z"/><path class="cls-1" d="M1588.71,149.63l-29.17,59.13-65.24,9.51a14.3,14.3,0,0,0-7.91,24.39l47.21,46-11.17,65a14.28,14.28,0,0,0,20.72,15.05L1601.53,338l58.37,30.68a14.29,14.29,0,0,0,20.72-15.05l-11.17-65,47.21-46a14.3,14.3,0,0,0-7.9-24.39l-65.25-9.51-29.17-59.13a14.3,14.3,0,0,0-25.63,0Z"/><path class="cls-1" d="M2232.26,149.63l-29.17,59.13-65.24,9.51a14.3,14.3,0,0,0-7.91,24.39l47.21,46-11.17,65a14.28,14.28,0,0,0,20.72,15.05L2245.08,338l58.37,30.68a14.29,14.29,0,0,0,20.72-15.05l-11.17-65,47.21-46a14.3,14.3,0,0,0-7.91-24.39l-65.24-9.51-29.17-59.13a14.3,14.3,0,0,0-25.63,0Z"/></svg>